<mxfile host="Electron" modified="2025-07-28T11:36:26.321Z" agent="Mozilla/5.0 (Windows NT 10.0; Win64; x64) AppleWebKit/537.36 (KHTML, like Gecko) draw.io/23.0.2 Chrome/120.0.6099.109 Electron/28.1.0 Safari/537.36" etag="3mX5HOjiZH6Zxvu2TOcZ" compressed="false" version="23.0.2" type="device">
  <diagram name="ND0028" id="pZUCFqLEkIhGJ9fpKpeo">
    <mxGraphModel dx="1418" dy="820" grid="1" gridSize="2" guides="1" tooltips="1" connect="1" arrows="1" fold="1" page="1" pageScale="1" pageWidth="1169" pageHeight="827" math="0" shadow="0">
      <root>
        <mxCell id="jstzb9-jNweRadbk4aqs-0" />
        <object label="Symbol" Width="12" Height="4" UoM="mm" id="jstzb9-jNweRadbk4aqs-124">
          <mxCell style="locked=1;" parent="jstzb9-jNweRadbk4aqs-0" />
        </object>
        <mxCell id="jstzb9-jNweRadbk4aqs-125" value="" style="triangle;whiteSpace=wrap;html=1;fontFamily=Helvetica;fontSize=16;fillColor=#000000;" parent="jstzb9-jNweRadbk4aqs-124" vertex="1">
          <mxGeometry x="400" y="176" width="46" height="32" as="geometry" />
        </mxCell>
        <mxCell id="8_dzSsTyCsE6NcApi0Qt-1" value="" style="endArrow=none;html=1;rounded=0;" parent="jstzb9-jNweRadbk4aqs-124" edge="1">
          <mxGeometry width="50" height="50" relative="1" as="geometry">
            <mxPoint x="256" y="224" as="sourcePoint" />
            <mxPoint x="256" y="160" as="targetPoint" />
          </mxGeometry>
        </mxCell>
        <mxCell id="8_dzSsTyCsE6NcApi0Qt-2" value="" style="endArrow=none;html=1;rounded=0;" parent="jstzb9-jNweRadbk4aqs-124" edge="1">
          <mxGeometry width="50" height="50" relative="1" as="geometry">
            <mxPoint x="400" y="192" as="sourcePoint" />
            <mxPoint x="256" y="192" as="targetPoint" />
          </mxGeometry>
        </mxCell>
        <mxCell id="jstzb9-jNweRadbk4aqs-132" value="Label" style="" parent="jstzb9-jNweRadbk4aqs-0" />
        <object label="%LabelLines%&amp;nbsp; &amp;nbsp; &amp;nbsp; &amp;nbsp; &amp;nbsp; &amp;nbsp;%LabelIndex%" placeholders="1" LabelLines="1" LabelIndex="A" id="EU1TTH83csC65U88NiWo-0">
          <mxCell style="rounded=0;whiteSpace=wrap;html=1;fillColor=none;strokeColor=#FF0000;fontColor=#FF0000;fontSize=10;align=left;" vertex="1" parent="jstzb9-jNweRadbk4aqs-132">
            <mxGeometry x="272" y="160" width="80" height="16" as="geometry" />
          </mxCell>
        </object>
        <mxCell id="jstzb9-jNweRadbk4aqs-126" value="Connection" style="" parent="jstzb9-jNweRadbk4aqs-0" />
        <object label="Connection" PipingConnector="Y" LabelConnector="N" SignalConnector="N" Direction="180" AuxiliaryConnector="N" id="8_dzSsTyCsE6NcApi0Qt-4">
          <mxCell style="vsdxID=1407;fillColor=none;gradientColor=none;shape=stencil(rVFbDsIgEDwNnyQU4glqvcfGblsilmZBS28vZGMsxg9j/JvZmX1kR5g2TLCg0CpE8hdcbR8nYY5CaztPSDZmJEwnTDt4wpH8be6ZL1CcBV39vUxI3KdKh1YbswPTEzuBzlmiVGmKau9zUKM+jlJJQrJBko8QrZ+rrQ5oRJnXyMHBWElhRVx25ebnw/5zVvPFWRm83jxY5zilvf4eSy5xpKZ7AA==);strokeColor=#00FF00;strokeWidth=1;points=[[0.5,0.5,0,0,0]];labelBackgroundColor=none;rounded=0;html=1;whiteSpace=wrap;aspect=fixed;noLabel=1;snapToPoint=1;container=0;fontSize=16;fontFamily=Helvetica;" parent="jstzb9-jNweRadbk4aqs-126" vertex="1">
            <mxGeometry x="250" y="186" width="12" height="12" as="geometry" />
          </mxCell>
        </object>
        <object label="Connection" PipingConnector="Y" LabelConnector="N" SignalConnector="N" Direction="0" AuxiliaryConnector="N" id="8_dzSsTyCsE6NcApi0Qt-5">
          <mxCell style="vsdxID=1407;fillColor=none;gradientColor=none;shape=stencil(rVFbDsIgEDwNnyQU4glqvcfGblsilmZBS28vZGMsxg9j/JvZmX1kR5g2TLCg0CpE8hdcbR8nYY5CaztPSDZmJEwnTDt4wpH8be6ZL1CcBV39vUxI3KdKh1YbswPTEzuBzlmiVGmKau9zUKM+jlJJQrJBko8QrZ+rrQ5oRJnXyMHBWElhRVx25ebnw/5zVvPFWRm83jxY5zilvf4eSy5xpKZ7AA==);strokeColor=#00FF00;strokeWidth=1;points=[[0.5,0.5,0,0,0]];labelBackgroundColor=none;rounded=0;html=1;whiteSpace=wrap;aspect=fixed;noLabel=1;snapToPoint=1;container=0;fontSize=16;" parent="jstzb9-jNweRadbk4aqs-126" vertex="1">
            <mxGeometry x="442" y="186" width="12" height="12" as="geometry" />
          </mxCell>
        </object>
        <mxCell id="jstzb9-jNweRadbk4aqs-133" value="Origo" style="" parent="jstzb9-jNweRadbk4aqs-0" />
        <object label="origo" id="jstzb9-jNweRadbk4aqs-134">
          <mxCell style="vsdxID=1407;fillColor=none;gradientColor=none;shape=stencil(rVFbDsIgEDwNnyQU4glqvcfGblsilmZBS28vZGMsxg9j/JvZmX1kR5g2TLCg0CpE8hdcbR8nYY5CaztPSDZmJEwnTDt4wpH8be6ZL1CcBV39vUxI3KdKh1YbswPTEzuBzlmiVGmKau9zUKM+jlJJQrJBko8QrZ+rrQ5oRJnXyMHBWElhRVx25ebnw/5zVvPFWRm83jxY5zilvf4eSy5xpKZ7AA==);strokeColor=#ff0000;strokeWidth=1;points=[[0.5,0.5,0,0,0]];labelBackgroundColor=none;rounded=0;html=1;whiteSpace=wrap;aspect=fixed;noLabel=1;snapToPoint=1;" parent="jstzb9-jNweRadbk4aqs-133" vertex="1">
            <mxGeometry x="444" y="188" width="7.874" height="7.87" as="geometry" />
          </mxCell>
        </object>
      </root>
    </mxGraphModel>
  </diagram>
</mxfile>
